<svg width="108" height="108" viewBox="0 0 108 108" fill="none" xmlns="http://www.w3.org/2000/svg">
<path d="M47.0823 0.614731V27.6077H51.2622V0.614258H47.0825L47.0823 0.614731ZM21.4998 0.7622C17.835 0.7622 14.8603 3.73663 14.8603 7.40137C14.8603 11.0661 17.835 14.0334 21.4998 14.0334C24.4905 14.0334 27.0156 12.0549 27.8437 9.33642H38.4636V27.6077H42.6438V5.15648H27.7473C26.8285 2.5954 24.3768 0.7622 21.4998 0.7622ZM67.1702 0.7622C63.5054 0.7622 60.5381 3.73663 60.5381 7.40137C60.5381 10.2666 62.3524 12.7069 64.896 13.6348V27.6074H69.0683V13.7602C71.8088 12.9444 73.8098 10.406 73.8098 7.4016C73.8098 3.73663 70.8351 0.7622 67.1704 0.7622H67.1702ZM55.8926 14.8606V27.6077H60.0654V14.8606H55.8931H55.8926ZM100.448 15.813C96.7833 15.813 93.8086 18.7879 93.8086 22.4526C93.8086 25.5445 95.9233 28.142 98.7864 28.8779V35.3694H76.8225V39.5422H102.966V28.5903C105.382 27.5996 107.08 25.2267 107.08 22.4529C107.08 18.7881 104.112 15.8135 100.448 15.8135L100.448 15.813ZM0.134033 22.2239V26.404H15.8647V39.5425H30.7095V35.3691H20.0449V22.2236H0.134269L0.134033 22.2239ZM34.8818 31.7881V69.5339H72.6494V31.7876H34.8821L34.8818 31.7881ZM39.0318 35.4878H43.2046V54.062L50.8633 61.7204H68.6541V65.8935H49.1279L48.5149 65.2805L45.9744 62.74C45.7302 64.4852 44.235 65.8269 42.4224 65.8269C40.4391 65.8269 38.8325 64.2208 38.8325 62.2378C38.8325 60.4223 40.1787 58.9339 41.9272 58.6928L39.6455 56.4104L39.0325 55.7976V35.4873L39.0318 35.4878ZM52.0156 35.5249H56.1953V48.5969H68.6096L68.6101 52.7771H52.0159V35.5251L52.0156 35.5249ZM5.55469 44.3721V65.6343C2.83928 66.4643 0.864996 68.9897 0.864996 71.9783C0.864996 75.6425 3.83257 78.6174 7.49731 78.6174C11.162 78.6174 14.1365 75.6428 14.1365 71.9785C14.1365 69.0965 12.2955 66.646 9.72754 65.7305V48.5447H30.7092V44.3723H5.55469V44.3721ZM76.8225 44.3721V48.5447H89.5767V44.3723H76.822L76.8225 44.3721ZM100.448 49.5642C97.8723 49.5642 95.6404 51.0318 94.5396 53.1753H76.822L76.8225 57.3555H93.9121C94.4616 60.4674 97.1791 62.8352 100.448 62.8352C104.113 62.8352 107.08 59.8603 107.08 56.1958C107.08 52.5311 104.112 49.564 100.448 49.564V49.5642ZM17.9546 53.1753V57.3555H30.7092V53.1753H17.9546ZM22.009 61.7942V81.697C19.2917 82.5272 17.312 85.0529 17.312 88.041C17.312 91.7055 20.2867 94.6804 23.9514 94.6804C27.6159 94.6804 30.5828 91.7055 30.5828 88.041C30.5828 85.1592 28.7475 82.7085 26.1814 81.7932V65.9734H30.7085V61.7937H22.0093L22.009 61.7942ZM76.8225 61.7942V65.9739H87.4941V88.4919C84.8182 89.3484 82.8786 91.862 82.8786 94.8208C82.8782 98.4853 85.8528 101.453 89.5176 101.453C93.1823 101.453 96.1497 98.4853 96.1497 94.821C96.1497 91.9095 94.2744 89.438 91.6665 88.5434V61.7942H76.8218H76.8225ZM38.4636 73.7134V86.4829H42.6438V73.7134H38.4636ZM47.0825 73.7134V94.1709C44.4798 95.0675 42.6065 97.5346 42.6065 100.441C42.6065 104.105 45.5814 107.08 49.2461 107.08C52.9108 107.08 55.8782 104.105 55.8782 100.441C55.8782 97.4795 53.9396 94.972 51.2622 94.1189V73.7134H47.0825ZM55.8928 73.7134V86.4829H60.073L60.0654 73.7136H55.8931L55.8928 73.7134ZM64.8955 73.7134V106.814H69.0679V73.7134H64.8957H64.8955Z" fill="black" fill-opacity="0.17"/>
</svg>
