<svg width="126" height="132" viewBox="0 0 126 132" fill="none" xmlns="http://www.w3.org/2000/svg">
<path d="M62.8743 0.85791C39.2874 0.85791 18.7284 14.3592 8.01686 34.366H22.5538L27.3927 24.6879H60.885C61.479 23.464 62.4505 22.4416 63.5576 21.7037C65.3793 20.4893 67.66 19.8496 70.1332 19.8496C72.6061 19.8496 74.8871 20.4893 76.7088 21.7037C78.5305 22.9177 79.9929 24.899 79.9929 27.2895C79.9929 29.68 78.5302 31.661 76.7088 32.8753C74.8871 34.0897 72.6061 34.7294 70.1332 34.7294C67.66 34.7294 65.3793 34.0897 63.5576 32.8753C62.4505 32.1374 61.4784 31.115 60.8844 29.8905H30.6077L28.3703 34.3657H43.5178V39.5686H5.51792C4.88975 41.0388 4.3151 42.5314 3.7951 44.0433H14.4829V49.2458H2.23966C1.08167 53.7861 0.385321 58.5224 0.201477 63.3992H31.9645L36.804 48.8825H48.357V54.0847H40.5535L37.4481 63.3992H51.2057C51.8 62.175 52.7718 61.1523 53.8789 60.4143C55.7006 59.2 57.9816 58.5603 60.4545 58.5603C62.9278 58.5603 65.2085 59.2 67.0301 60.4143C68.8518 61.6284 70.315 63.6096 70.315 66.0002C70.315 68.3907 68.8518 70.3717 67.0301 71.586C65.2085 72.8004 62.9278 73.4401 60.4545 73.4401C57.9816 73.4401 55.7006 72.8004 53.8789 71.586C52.7718 70.848 51.8 69.8256 51.2057 68.6012H23.5308L30.6077 82.7545H53.1959V87.9571H27.3924L17.714 68.6012H0.201477C0.668024 80.9805 4.44781 92.4566 10.645 102.11H36.6884C37.2824 100.886 38.2551 99.863 39.3622 99.125C41.1839 97.9106 43.464 97.2709 45.9372 97.2709C48.4102 97.2709 50.6912 97.9106 52.5128 99.125C54.3345 100.339 55.7975 102.32 55.7975 104.711C55.7975 107.101 54.3345 109.082 52.5128 110.297C50.6912 111.511 48.4102 112.151 45.9372 112.151C43.464 112.151 41.1839 111.511 39.3622 110.297C38.2551 109.559 37.283 108.536 36.689 107.312H33.8608L40.0707 116.626H61.2671L66.106 106.948H77.3919V112.151H69.3212L67.0833 116.626H82.2308V121.829H37.2868L27.6081 107.312H14.3554C25.863 121.872 43.3293 131.143 62.8746 131.143C89.5654 131.143 112.38 113.855 121.433 89.4142C120.022 92.4514 118.32 95.0059 116.254 96.8989C114.17 98.8093 111.612 100.054 108.846 100.054C106.08 100.054 103.523 98.8093 101.438 96.8989C99.3528 94.9882 97.6378 92.4052 96.2188 89.3307C93.3808 83.1818 91.7276 75.01 91.7276 66.0002C91.7276 56.9904 93.3808 48.8183 96.2188 42.6699C97.6381 39.5952 99.3528 37.0121 101.438 35.1014C103.523 33.191 106.08 31.9466 108.846 31.9466C111.612 31.9466 114.17 33.191 116.254 35.1014C118.32 36.9945 120.022 39.5489 121.433 42.5861C112.38 18.1453 89.5654 0.85791 62.8743 0.85791ZM70.1332 25.0522C68.5974 25.0522 67.2484 25.4953 66.443 26.0321C65.6377 26.5692 65.4753 27.0077 65.4753 27.2895C65.4753 27.5713 65.6377 28.0098 66.443 28.5469C67.2487 29.0837 68.5974 29.5268 70.1332 29.5268C71.669 29.5268 73.0178 29.0837 73.8231 28.5469C74.6287 28.0098 74.7903 27.5713 74.7903 27.2895C74.7903 27.0077 74.6284 26.5692 73.8231 26.0321C73.0178 25.4953 71.669 25.0522 70.1332 25.0522ZM116.105 49.1715C112.752 49.1715 110.296 51.717 108.771 54.7649C107.247 57.813 106.412 61.7139 106.412 66.0002C106.412 70.2867 107.247 74.1873 108.772 77.2352C110.296 80.2833 112.752 82.8291 116.105 82.8291C119.457 82.8291 121.914 80.2833 123.439 77.2352C124.963 74.1873 125.799 70.2867 125.799 66.0002C125.799 61.7137 124.963 57.813 123.439 54.7652C121.914 51.717 119.457 49.1715 116.105 49.1715ZM117.438 54.9982C117.888 55.4309 118.381 56.0876 118.863 57.0522C119.922 59.1693 120.684 62.4048 120.684 66.0002C120.684 69.5955 119.922 72.8307 118.863 74.9481C117.805 77.0652 116.693 77.7144 116.105 77.7144C115.516 77.7144 114.405 77.0652 113.346 74.9481C112.287 72.831 111.526 69.5955 111.526 66.0002C111.526 65.927 111.528 65.8551 111.529 65.7822C112.207 66.3143 112.961 66.5929 113.727 66.5945C114.989 66.5944 116.199 65.8425 117.091 64.5044C117.983 63.1663 118.484 61.3514 118.484 59.459C118.484 57.837 118.115 56.2636 117.438 54.9982ZM60.4545 63.7625C58.9187 63.7625 57.5706 64.206 56.7652 64.7427C55.9596 65.2798 55.7975 65.7183 55.7975 66.0002C55.7975 66.282 55.9596 66.7205 56.7652 67.2576C57.5706 67.7944 58.9187 68.2375 60.4545 68.2375C61.9906 68.2375 63.3394 67.7944 64.1447 67.2576C64.95 66.7205 65.1125 66.282 65.1125 66.0002C65.1125 65.7183 64.95 65.2798 64.1447 64.7427C63.3394 64.206 61.9906 63.7625 60.4545 63.7625ZM45.9372 102.473C44.4012 102.473 43.053 102.917 42.2476 103.453C41.4423 103.99 41.2799 104.429 41.2799 104.711C41.2799 104.993 41.4423 105.431 42.2476 105.968C43.053 106.505 44.4012 106.948 45.9372 106.948C47.473 106.948 48.8218 106.505 49.6271 105.968C50.4327 105.431 50.5949 104.993 50.5949 104.711C50.5949 104.429 50.4327 103.99 49.6271 103.453C48.8218 102.917 47.473 102.473 45.9372 102.473Z" fill="black" fill-opacity="0.17"/>
</svg>
