<svg width="19" height="19" viewBox="0 0 19 19" fill="none" xmlns="http://www.w3.org/2000/svg">
<g clip-path="url(#clip0_166_91)">
<path d="M13.4583 2.37508C13.6662 2.16715 13.9131 2.00221 14.1848 1.88968C14.4564 1.77716 14.7476 1.71924 15.0416 1.71924C15.3357 1.71924 15.6269 1.77716 15.8985 1.88968C16.1702 2.00221 16.4171 2.16715 16.625 2.37508C16.8329 2.583 16.9978 2.82985 17.1104 3.10152C17.2229 3.37318 17.2808 3.66436 17.2808 3.95841C17.2808 4.25246 17.2229 4.54363 17.1104 4.8153C16.9978 5.08697 16.8329 5.33382 16.625 5.54174L5.93748 16.2292L1.58331 17.4167L2.77081 13.0626L13.4583 2.37508Z" stroke="#fff" stroke-width="2" stroke-linecap="round" stroke-linejoin="round"/>
</g>
<defs>
<clipPath id="clip0_166_91">
<rect width="19" height="19" fill="white"/>
</clipPath>
</defs>
</svg>
