<svg width="30" height="30" viewBox="0 0 30 30" fill="none" xmlns="http://www.w3.org/2000/svg">
<path d="M21 24.1997V22.1997C21 21.1388 20.5259 20.1214 19.682 19.3713C18.8381 18.6211 17.6935 18.1997 16.5 18.1997H7.5C6.30653 18.1997 5.16193 18.6211 4.31802 19.3713C3.47411 20.1214 3 21.1388 3 22.1997V24.1997" stroke="#5D5D5D" stroke-width="2.5" stroke-linecap="round" stroke-linejoin="round"/>
<path d="M12 13.4C14.3196 13.4 16.2 11.5196 16.2 9.2C16.2 6.8804 14.3196 5 12 5C9.68045 5 7.80005 6.8804 7.80005 9.2C7.80005 11.5196 9.68045 13.4 12 13.4Z" stroke="#5D5D5D" stroke-width="2.5" stroke-linecap="round" stroke-linejoin="round"/>
<path d="M27.0001 24.1997V22.1554C26.9994 21.2495 26.6454 20.3695 25.9938 19.6535C25.3422 18.9376 24.4299 18.4262 23.4001 18.1997" stroke="#5D5D5D" stroke-width="2.5" stroke-linecap="round" stroke-linejoin="round"/>
<path d="M19.8 5C20.8299 5.23878 21.7426 5.78115 22.3944 6.5416C23.0463 7.30206 23.4 8.23734 23.4 9.2C23.4 10.1627 23.0463 11.0979 22.3944 11.8584C21.7426 12.6189 20.8299 13.1612 19.8 13.4" stroke="#5D5D5D" stroke-width="2.5" stroke-linecap="round" stroke-linejoin="round"/>
</svg>
