<svg width="37" height="37" viewBox="0 0 37 37" fill="none" xmlns="http://www.w3.org/2000/svg">
<g clip-path="url(#clip0_163_327)">
<path d="M8.47282 14.3433L5.97745 16.8387C5.1964 17.6198 5.1964 18.8861 5.97745 19.6671L8.47283 22.1625C9.25387 22.9436 10.5202 22.9436 11.3013 22.1625L13.7966 19.6671C14.5777 18.8861 14.5777 17.6198 13.7966 16.8387L11.3013 14.3433C10.5202 13.5623 9.25387 13.5623 8.47282 14.3433Z" stroke="#101010" stroke-width="2.35" stroke-linecap="round" stroke-linejoin="round"/>
<path d="M16.3143 6.50203L13.8189 8.99741C13.0379 9.77846 13.0379 11.0448 13.8189 11.8258L16.3143 14.3212C17.0954 15.1023 18.3617 15.1023 19.1427 14.3212L21.6381 11.8258C22.4192 11.0448 22.4192 9.77845 21.6381 8.99741L19.1427 6.50203C18.3617 5.72098 17.0954 5.72098 16.3143 6.50203Z" stroke="#101010" stroke-width="2.35" stroke-linecap="round" stroke-linejoin="round"/>
<path d="M24.1559 14.3433L21.6605 16.8387C20.8794 17.6198 20.8794 18.8861 21.6605 19.6671L24.1559 22.1625C24.9369 22.9436 26.2032 22.9436 26.9843 22.1625L29.4797 19.6671C30.2607 18.8861 30.2607 17.6198 29.4797 16.8387L26.9843 14.3433C26.2032 13.5623 24.9369 13.5623 24.1559 14.3433Z" stroke="#101010" stroke-width="2.35" stroke-linecap="round" stroke-linejoin="round"/>
<path d="M16.3144 22.1851L13.8191 24.6805C13.038 25.4616 13.038 26.7279 13.8191 27.5089L16.3144 30.0043C17.0955 30.7854 18.3618 30.7854 19.1429 30.0043L21.6382 27.5089C22.4193 26.7279 22.4193 25.4616 21.6382 24.6805L19.1429 22.1851C18.3618 21.4041 17.0955 21.4041 16.3144 22.1851Z" stroke="#101010" stroke-width="2.35" stroke-linecap="round" stroke-linejoin="round"/>
</g>
<defs>
<clipPath id="clip0_163_327">
<rect width="25.8137" height="25.8137" fill="white" transform="translate(0 18.2529) rotate(-45)"/>
</clipPath>
</defs>
</svg>
