<svg width="34" height="34" viewBox="0 0 34 34" fill="none" xmlns="http://www.w3.org/2000/svg">
<path d="M17 31.1668C24.824 31.1668 31.1666 24.8242 31.1666 17.0002C31.1666 9.17613 24.824 2.8335 17 2.8335C9.17594 2.8335 2.83331 9.17613 2.83331 17.0002C2.83331 24.8242 9.17594 31.1668 17 31.1668Z" stroke="#5D5D5D" stroke-width="2.5" stroke-linecap="round" stroke-linejoin="round"/>
<path d="M12.8775 12.7498C13.2106 11.803 13.868 11.0046 14.7333 10.4961C15.5986 9.98756 16.6159 9.80166 17.6052 9.97134C18.5944 10.141 19.4917 10.6553 20.138 11.4232C20.7844 12.191 21.1382 13.1628 21.1367 14.1665C21.1367 16.9998 16.8867 18.4165 16.8867 18.4165" stroke="#5D5D5D" stroke-width="2.5" stroke-linecap="round" stroke-linejoin="round"/>
<path d="M17 24.0835H17.0147" stroke="#5D5D5D" stroke-width="2.5" stroke-linecap="round" stroke-linejoin="round"/>
</svg>
