<svg width="126" height="126" viewBox="0 0 126 126" fill="none" xmlns="http://www.w3.org/2000/svg">
<g clip-path="url(#clip0_163_288)">
<path d="M72.7374 7.81459C50.8664 8.06388 32.3197 28.2773 36.7733 45.7677C37.5391 46.1811 38.2779 46.6814 38.9822 47.2472C62.2046 42.169 84.8066 38.0802 106.588 30.1732C105.507 27.3771 104.392 23.6222 102.871 22.0873C93.381 11.7408 82.7138 7.70064 72.7377 7.81434L72.7374 7.81459ZM112.798 32.5536C89.9155 41.5028 66.3961 45.8752 42.5353 51.0304C43.2736 52.09 43.8731 53.2329 44.2358 54.4425C48.3451 54.5803 52.4283 54.6762 56.4938 54.7348C57.0635 51.8988 58.9338 49.2551 62.0594 47.9682L62.1426 47.9338L62.228 47.9067C63.2215 47.5887 64.2152 47.4627 65.1674 47.4982C66.1197 47.5326 67.0303 47.7295 67.8572 48.0563C69.5121 48.7109 70.8398 49.81 71.9436 51.0119C73.0264 52.1907 73.9216 53.4975 74.6639 54.7181C88.6036 54.4735 102.388 53.6776 116.202 52.1823C116.198 51.2459 116.192 50.326 116.178 49.4212C112 49.036 107.088 49.335 100.375 51.308C105.991 48.3676 110.176 46.5047 115.333 46.5559C115.586 46.5584 115.842 46.5652 116.101 46.5771C115.99 43.9323 115.748 41.413 115.202 38.9915C106.943 43.874 99.8365 44.7821 89.1206 45.479C101.484 42.8889 108.564 39.5555 114.357 36.0398C113.939 34.8581 113.429 33.697 112.799 32.5536H112.798ZM32.6222 49.0144C32.4544 49.0134 32.3392 49.0365 32.2654 49.0621C31.0949 49.6562 29.8664 51.3296 29.3078 53.3572C28.7627 55.335 28.9214 57.4581 29.55 58.6881C30.6857 59.8132 33.0696 60.2705 35.4971 59.7938C37.8793 59.3262 39.7348 57.8927 40.1389 57.1537C40.1475 55.6855 38.9109 53.1908 37.0036 51.3936C35.9996 50.4466 34.8735 49.7012 33.9479 49.3222C33.4852 49.1327 33.1004 49.0491 32.8085 49.0227C32.7403 49.0166 32.6781 49.0139 32.6224 49.0136L32.6222 49.0144ZM65.0458 51.9084C64.6336 51.8897 64.1906 51.9478 63.6775 52.1019C61.662 52.9558 60.9665 54.1764 60.7613 56.0595C60.5538 57.9668 61.1624 60.5261 62.401 62.9098C63.6398 65.2932 65.4841 67.4872 67.3556 68.8045C69.2269 70.1218 70.9215 70.518 72.3361 70.0391L73.756 74.235C70.6314 75.2932 67.4098 74.2597 64.8056 72.4267C62.2014 70.5933 60.0105 67.9158 58.4702 64.9524C57.5121 63.1091 56.7967 61.1502 56.4748 59.1756C52.4273 59.1165 48.3636 59.0218 44.276 58.8857C43.7434 60.1713 42.8535 61.1842 41.7545 61.9778C43.1868 64.8916 44.9069 67.636 46.9495 70.1964L47.5886 70.9967L47.393 72.0017C45.9051 79.6326 43.9797 87.4129 38.2949 92.3242C46.1153 105.274 55.7213 115.636 75.4002 117.582C77.2498 110.96 78.8824 103.345 90.2847 95.5052L90.8807 95.0959L91.6035 95.1166C101.642 95.407 106.803 93.7015 109.226 90.5624C110.29 89.1842 110.952 87.3258 111.237 84.9399L101.629 84.7437L101.719 80.315L111.364 80.5119C111.273 78.3426 110.991 75.8836 110.522 73.1094L110.093 70.568L119.002 70.4238C118.722 68.7366 118.02 66.394 116.962 64.2129C115.432 61.0555 113.134 58.0844 112.256 57.4743L111.733 57.1109C99.3702 58.3039 87.0239 58.9524 74.5681 59.165C72.6855 60.1307 73.1639 59.8757 72.6454 60.1661C71.6212 58.3376 70.2893 55.76 68.6808 54.0088C67.8761 53.1327 67.0337 52.4944 66.2278 52.1754C65.838 52.0216 65.4568 51.9269 65.0448 51.9082L65.0458 51.9084ZM26.3783 61.8039C24.667 65.2566 22.8208 69.2344 20.8412 73.197C18.6116 77.6626 16.2181 82.1056 13.5839 85.8138C11.5807 88.6332 9.4505 91.0674 6.99744 92.6982C9.42491 96.1133 11.4239 98.9687 13.0646 101.477C14.1337 98.5149 15.375 95.4267 16.6906 92.2779C19.4444 85.688 22.5075 78.869 24.8988 72.7004C26.2351 69.2521 27.3484 65.9899 28.0931 63.1389C27.4774 62.7809 26.9008 62.3391 26.3778 61.8031L26.3783 61.8039ZM35.7528 64.2451C34.649 64.4198 33.4995 64.4838 32.365 64.3952C31.5578 67.4773 30.3864 70.7998 29.0292 74.3017C26.5752 80.6322 23.499 87.4727 20.7777 93.9858C18.0559 100.499 15.6971 106.706 14.6657 111.556C14.1499 113.981 13.9796 116.06 14.1654 117.575C14.1935 117.803 14.2392 117.988 14.2794 118.188C15.0415 117.627 15.8703 117.144 16.8117 116.737C19.3095 115.655 22.4135 114.889 25.5066 114.336C28.5995 113.783 31.6501 113.461 33.9875 113.387C34.2262 113.379 34.4231 113.385 34.6456 113.382C32.0882 98.9537 34.1106 78.2535 35.753 64.2456L35.7528 64.2451Z" fill="black" fill-opacity="0.17"/>
</g>
<defs>
<clipPath id="clip0_163_288">
<rect width="126" height="126" fill="white"/>
</clipPath>
</defs>
</svg>
