<svg width="145" height="145" viewBox="0 0 145 145" fill="none" xmlns="http://www.w3.org/2000/svg">
<g clip-path="url(#clip0_163_280)">
<path d="M38.1942 32.1325C36.0806 32.1398 33.9082 32.9756 31.8561 34.5858C29.1209 36.7331 26.7429 40.2542 25.5812 44.5897C24.4195 48.9256 24.7183 53.1634 26.0136 56.3908C27.3093 59.6182 29.4795 61.7598 32.2186 62.4938C34.9572 63.2273 37.9082 62.4581 40.6439 60.3109C43.3791 58.1634 45.7571 54.6423 46.9188 50.3067C48.0805 45.9709 47.7817 41.733 46.4864 38.5057C45.1907 35.2783 43.02 33.1361 40.2814 32.4026C39.5966 32.2185 38.8988 32.1293 38.1942 32.1319V32.1325ZM106.806 32.1325C106.101 32.1296 105.403 32.2191 104.719 32.4026C101.979 33.1361 99.8087 35.2786 98.5136 38.5057C97.2177 41.7333 96.9192 45.9715 98.0812 50.3067C99.2429 54.6426 101.62 58.1636 104.356 60.3109C107.092 62.4576 110.043 63.227 112.781 62.4932C115.52 61.7597 117.691 59.6179 118.987 56.3902C120.282 53.1631 120.58 48.925 119.418 44.5891C118.257 40.2539 115.88 36.7331 113.144 34.5856C111.092 32.9753 108.919 32.1393 106.806 32.1319L106.806 32.1325ZM25.0315 64.0155C22.1581 64.6195 19.9168 65.8498 18.0024 67.5974C15.2038 70.1528 13.099 73.9845 11.4802 78.8406C8.47825 87.8464 7.2197 100.178 5.23218 112.868H42.7552C42.7438 100.152 42.6099 87.6847 40.8283 78.5214C39.9212 73.8571 38.5711 70.0856 36.8357 67.5983C34.8895 67.9783 32.8799 67.9494 30.8989 67.4184C28.6299 66.8104 26.6565 65.6127 25.0315 64.016V64.0155ZM119.969 64.0155C118.343 65.6127 116.37 66.8101 114.101 67.4181C112.12 67.9489 110.111 67.9783 108.165 67.5983C106.43 70.0862 105.078 73.8571 104.172 78.5214C102.39 87.6847 102.256 100.152 102.245 112.868H139.768C137.78 100.179 136.521 87.8464 133.52 78.8406C131.901 73.9848 129.797 70.153 126.998 67.5974C125.084 65.8501 122.843 64.6198 119.969 64.016L119.969 64.0155ZM51.8256 83.6981V90.2118H56.9238V83.6981H51.8256ZM74.4824 83.6981V90.2118H79.5807V83.6981H74.4824ZM47.6186 95.3094C47.6696 96.6158 47.7073 97.9409 47.739 99.2743H97.261C97.2927 97.9409 97.3313 96.6158 97.3819 95.3094H47.6183H47.6186Z" fill="black" fill-opacity="0.17"/>
</g>
<defs>
<clipPath id="clip0_163_280">
<rect width="145" height="145" fill="white"/>
</clipPath>
</defs>
</svg>
