<svg width="39" height="39" viewBox="0 0 39 39" fill="none" xmlns="http://www.w3.org/2000/svg">
<g opacity="1">
<path d="M20.25 25.5C23.0114 25.5 25.25 23.2614 25.25 20.5C25.25 17.7386 23.0114 15.5 20.25 15.5C17.4886 15.5 15.25 17.7386 15.25 20.5C15.25 23.2614 17.4886 25.5 20.25 25.5Z" stroke="#101010" stroke-width="3.1" stroke-linecap="round" stroke-linejoin="round"/>
<path d="M30.7636 24.3636C30.57 24.8024 30.5123 25.289 30.5978 25.7609C30.6834 26.2327 30.9083 26.6681 31.2436 27.0109L31.3309 27.0982C31.6014 27.3684 31.816 27.6892 31.9624 28.0424C32.1088 28.3955 32.1841 28.7741 32.1841 29.1564C32.1841 29.5387 32.1088 29.9172 31.9624 30.2704C31.816 30.6235 31.6014 30.9444 31.3309 31.2145C31.0607 31.485 30.7399 31.6996 30.3867 31.846C30.0336 31.9924 29.655 32.0677 29.2727 32.0677C28.8904 32.0677 28.5119 31.9924 28.1587 31.846C27.8056 31.6996 27.4847 31.485 27.2145 31.2145L27.1273 31.1273C26.7845 30.7919 26.3491 30.567 25.8772 30.4814C25.4054 30.3959 24.9187 30.4536 24.48 30.6473C24.0498 30.8317 23.6829 31.1378 23.4244 31.5281C23.166 31.9183 23.0273 32.3756 23.0255 32.8436V33.0909C23.0255 33.8624 22.719 34.6024 22.1734 35.1479C21.6278 35.6935 20.8879 36 20.1164 36C19.3448 36 18.6049 35.6935 18.0593 35.1479C17.5138 34.6024 17.2073 33.8624 17.2073 33.0909V32.96C17.196 32.4786 17.0402 32.0116 16.76 31.6199C16.4799 31.2282 16.0883 30.9299 15.6364 30.7636C15.1976 30.57 14.711 30.5123 14.2391 30.5978C13.7673 30.6834 13.3319 30.9083 12.9891 31.2436L12.9018 31.3309C12.6316 31.6014 12.3108 31.816 11.9576 31.9624C11.6045 32.1088 11.2259 32.1841 10.8436 32.1841C10.4613 32.1841 10.0828 32.1088 9.72963 31.9624C9.37647 31.816 9.05563 31.6014 8.78545 31.3309C8.51498 31.0607 8.30041 30.7399 8.15401 30.3867C8.00761 30.0336 7.93226 29.655 7.93226 29.2727C7.93226 28.8904 8.00761 28.5119 8.15401 28.1587C8.30041 27.8056 8.51498 27.4847 8.78545 27.2145L8.87273 27.1273C9.20805 26.7845 9.433 26.3491 9.51855 25.8772C9.60411 25.4054 9.54635 24.9187 9.35273 24.48C9.16834 24.0498 8.86219 23.6829 8.47195 23.4244C8.08171 23.166 7.62442 23.0273 7.15636 23.0255H6.90909C6.13755 23.0255 5.39761 22.719 4.85205 22.1734C4.30649 21.6278 4 20.8879 4 20.1164C4 19.3448 4.30649 18.6049 4.85205 18.0593C5.39761 17.5138 6.13755 17.2073 6.90909 17.2073H7.04C7.52145 17.196 7.98837 17.0402 8.38007 16.76C8.77177 16.4799 9.07013 16.0883 9.23636 15.6364C9.42999 15.1976 9.48774 14.711 9.40219 14.2391C9.31663 13.7673 9.09169 13.3319 8.75636 12.9891L8.66909 12.9018C8.39861 12.6316 8.18404 12.3108 8.03764 11.9576C7.89125 11.6045 7.81589 11.2259 7.81589 10.8436C7.81589 10.4613 7.89125 10.0828 8.03764 9.72963C8.18404 9.37647 8.39861 9.05563 8.66909 8.78545C8.93927 8.51498 9.26011 8.30041 9.61326 8.15401C9.96642 8.00761 10.345 7.93226 10.7273 7.93226C11.1096 7.93226 11.4881 8.00761 11.8413 8.15401C12.1944 8.30041 12.5153 8.51498 12.7855 8.78545L12.8727 8.87273C13.2155 9.20805 13.6509 9.433 14.1228 9.51855C14.5946 9.60411 15.0813 9.54635 15.52 9.35273H15.6364C16.0666 9.16834 16.4335 8.86219 16.6919 8.47195C16.9504 8.08171 17.089 7.62442 17.0909 7.15636V6.90909C17.0909 6.13755 17.3974 5.39761 17.943 4.85205C18.4885 4.30649 19.2285 4 20 4C20.7715 4 21.5115 4.30649 22.057 4.85205C22.6026 5.39761 22.9091 6.13755 22.9091 6.90909V7.04C22.911 7.50805 23.0496 7.96535 23.3081 8.35559C23.5665 8.74583 23.9334 9.05198 24.3636 9.23636C24.8024 9.42999 25.289 9.48774 25.7609 9.40219C26.2327 9.31663 26.6681 9.09169 27.0109 8.75636L27.0982 8.66909C27.3684 8.39861 27.6892 8.18404 28.0424 8.03764C28.3955 7.89125 28.7741 7.81589 29.1564 7.81589C29.5387 7.81589 29.9172 7.89125 30.2704 8.03764C30.6235 8.18404 30.9444 8.39861 31.2145 8.66909C31.485 8.93927 31.6996 9.26011 31.846 9.61326C31.9924 9.96642 32.0677 10.345 32.0677 10.7273C32.0677 11.1096 31.9924 11.4881 31.846 11.8413C31.6996 12.1944 31.485 12.5153 31.2145 12.7855L31.1273 12.8727C30.7919 13.2155 30.567 13.6509 30.4814 14.1228C30.3959 14.5946 30.4536 15.0813 30.6473 15.52V15.6364C30.8317 16.0666 31.1378 16.4335 31.5281 16.6919C31.9183 16.9504 32.3756 17.089 32.8436 17.0909H33.0909C33.8624 17.0909 34.6024 17.3974 35.1479 17.943C35.6935 18.4885 36 19.2285 36 20C36 20.7715 35.6935 21.5115 35.1479 22.057C34.6024 22.6026 33.8624 22.9091 33.0909 22.9091H32.96C32.4919 22.911 32.0347 23.0496 31.6444 23.3081C31.2542 23.5665 30.948 23.9334 30.7636 24.3636Z" stroke="#101010" stroke-width="3.1" stroke-linecap="round" stroke-linejoin="round"/>
</g>
</svg>
